<svg version="1.1" id="Layer_1" xmlns="http://www.w3.org/2000/svg" xmlns:xlink="http://www.w3.org/1999/xlink" x="0px" y="0px"
	 width="100%" viewBox="0 0 1024 1024" enable-background="new 0 0 1024 1024" xml:space="preserve">

    <circle fill="#FFFFFF" cx="512" cy="512" r="512"/>

    <g transform="matrix(2.5, 0, 0, 2.5, -770, -750)">
        <path fill="#000000" d="M349.971313,415.746399 C377.068207,418.426086 403.706573,421.068512 430.341156,423.748596 C439.435638,424.663696 448.537994,425.536224 457.604584,426.682556 C465.016510,427.619690 469.971893,433.044373 470.275269,440.470978 C471.042908,459.261414 471.608856,478.060028 472.362793,496.851044 C473.263367,519.295837 474.379944,541.732300 475.196716,564.179810 C475.628296,576.040161 470.469238,580.308411 458.552155,579.074036 C429.281281,576.042236 399.992523,573.183167 370.710114,570.262817 C360.121826,569.206787 349.522339,568.255371 338.944000,567.108337 C327.680542,565.886963 323.168213,560.895203 322.792419,549.497070 C322.551086,542.178162 322.415924,534.860901 322.068359,527.539795 C321.026581,505.596863 320.451202,483.632019 319.638397,461.677795 C319.213593,450.202698 318.777649,438.726196 318.150330,427.261078 C317.667419,418.435059 323.746033,412.873627 332.645874,414.057343 C338.242584,414.801697 343.887848,415.180878 349.971313,415.746399 z"/>
        <path fill="#000000" d="M652.309814,461.983521 C652.970764,490.112396 653.689331,517.743103 654.258728,545.376831 C654.495361,556.861084 649.970642,561.643372 638.767029,563.403442 C607.066101,568.383728 575.399414,573.582458 543.720520,578.703064 C534.694763,580.162048 525.684753,581.722656 516.646301,583.096985 C509.924072,584.119141 504.596863,580.041870 503.498840,573.212097 C503.235352,571.573242 503.059509,569.904663 503.028870,568.246338 C502.551392,542.436768 502.126923,516.626221 501.641754,490.816833 C501.360077,475.833679 500.908844,460.853302 500.694336,445.869385 C500.564606,436.808167 504.960968,431.489777 513.965759,430.034332 C552.368408,423.827362 590.791748,417.748474 629.206421,411.615875 C632.161438,411.144135 635.094421,410.512024 638.060791,410.138489 C645.485291,409.203461 651.130615,414.061676 651.328369,421.533112 C651.680847,434.850250 651.983643,448.168671 652.309814,461.983521 M558.353760,451.678619 C546.013794,456.672028 538.494446,465.563080 537.333069,478.975281 C536.173706,492.363190 541.672913,502.847900 553.312195,509.433167 C565.374207,516.257568 577.357605,515.027527 588.422607,506.771454 C591.093689,504.778381 592.955750,504.829102 595.392273,506.867645 C602.164795,512.533936 609.024109,518.098450 615.925659,523.607239 C617.680298,525.007751 619.801331,527.051941 621.867371,524.165833 C623.738708,521.551880 621.216797,520.243896 619.643005,518.956360 C613.194519,513.680908 606.760925,508.377411 600.118774,503.352661 C596.853210,500.882294 595.498108,498.659088 597.892761,494.673035 C599.761841,491.561768 600.553894,487.888123 600.721130,484.157471 C601.764160,460.885406 582.221252,445.500824 558.353760,451.678619 z"/>
        <path fill="#000000" d="M551.784546,612.879883 C566.784485,614.524658 581.331848,616.117493 595.880676,617.697266 C605.642151,618.757263 615.407349,619.782715 625.166199,620.866089 C626.638672,621.029602 628.496704,621.206116 628.681152,623.026123 C628.925720,625.439575 626.684448,625.366882 625.160950,625.593262 C609.862244,627.865906 594.555054,630.081909 579.245422,632.280212 C555.040039,635.755737 530.754578,638.753418 506.649719,642.822632 C490.142883,645.609192 473.874847,644.921021 457.449036,642.998779 C437.125763,640.620361 416.770020,638.518433 396.425720,636.320801 C379.391296,634.480530 362.353027,632.676147 345.317413,630.847107 C344.656494,630.776062 344.002747,630.625916 343.350372,630.489990 C341.934845,630.194824 340.010254,630.330078 340.078339,628.239624 C340.141510,626.300964 342.024231,626.123230 343.434753,625.904419 C350.665009,624.782471 357.911560,623.765442 365.153259,622.717651 C391.978790,618.836487 418.777496,614.755310 445.640747,611.155334 C461.276581,609.059937 476.833801,605.397461 492.762512,606.758972 C506.847717,607.962952 520.889160,609.677673 534.951233,611.154602 C540.409851,611.727966 545.872131,612.267456 551.784546,612.879883 z"/>
        <path fill="#000000" d="M388.813049,398.344299 C373.622803,396.933929 358.889771,395.552979 344.161774,394.119995 C342.563995,393.964569 340.330627,394.011658 340.190002,391.933807 C340.001068,389.141449 342.638916,389.768066 344.255707,389.546570 C365.991119,386.568817 387.732025,383.630432 409.478821,380.736847 C429.245270,378.106720 449.045868,375.719971 468.783966,372.894562 C484.647614,370.623779 500.309052,372.667480 516.028992,374.194641 C535.392334,376.075714 554.766357,377.846649 574.131653,379.707977 C591.181152,381.346680 608.224854,383.045319 625.271545,384.713440 C626.628235,384.846222 628.278992,384.979980 628.314636,386.626282 C628.363403,388.881805 626.265686,388.966156 624.684753,389.178192 C609.359619,391.233582 594.029358,393.250763 578.695496,395.240326 C554.458130,398.385162 530.151062,401.071716 505.999817,404.775696 C489.335663,407.331451 472.886139,406.611938 456.294830,404.872070 C436.782806,402.825928 417.232727,401.143433 397.700531,399.288330 C394.886902,399.021088 392.081146,398.670593 388.813049,398.344299 z"/>
        <path fill="#000000" d="M577.791748,506.141113 C562.413574,510.883118 547.494568,502.877594 543.847351,488.253998 C540.109802,473.268250 549.489624,459.022461 565.036804,456.071960 C576.194031,453.954620 588.761108,461.250519 593.014954,472.315002 C597.532227,484.064819 592.859375,497.795898 582.188232,504.031403 C580.900757,504.783722 579.509155,505.357697 577.791748,506.141113 z"/>
    </g>
</svg>
