<svg version="1.1" id="Layer_1" xmlns="http://www.w3.org/2000/svg" xmlns:xlink="http://www.w3.org/1999/xlink" x="0px" y="0px"
	 width="100%" viewBox="0 0 938 883" enable-background="new 0 0 938 883" xml:space="preserve">
<path fill="#FFFFFF" opacity="1.000000" stroke="none" 
	d="
M627.000000,884.000000 
	C418.000000,884.000000 209.500000,884.000000 1.000000,884.000000 
	C1.000000,589.666687 1.000000,295.333344 1.000000,1.000000 
	C313.666656,1.000000 626.333313,1.000000 939.000000,1.000000 
	C939.000000,295.333344 939.000000,589.666687 939.000000,884.000000 
	C835.166687,884.000000 731.333313,884.000000 627.000000,884.000000 
M195.156479,506.396942 
	C195.710815,519.211975 196.031509,532.042725 196.890121,544.837341 
	C197.636368,555.957275 206.572281,564.854614 217.400833,565.954346 
	C233.634033,567.603027 249.867477,569.250671 266.106140,570.844360 
	C321.782562,576.308716 377.488922,581.489807 433.116516,587.411682 
	C444.661469,588.640686 455.994568,580.492676 455.289490,566.563354 
	C453.361053,528.465088 452.350494,490.320709 450.921783,452.196655 
	C449.661499,418.567505 448.365662,384.939545 447.006714,351.314301 
	C446.485016,338.405884 437.867493,329.130127 424.949402,327.804260 
	C389.338989,324.149323 353.713074,320.645233 318.091431,317.100189 
	C282.139130,313.522217 246.176590,310.044861 210.235291,306.360138 
	C197.258560,305.029785 187.844833,313.668457 188.346344,326.625916 
	C190.652954,386.222809 192.873688,445.823059 195.156479,506.396942 
M538.567322,592.026306 
	C545.637024,590.920593 552.710754,589.840454 559.775757,588.705139 
	C617.440430,579.438354 675.108154,570.190247 732.759521,560.841370 
	C738.299988,559.942932 744.208984,559.359924 749.116821,556.944214 
	C758.027466,552.558105 762.252747,544.670837 762.023132,534.516907 
	C760.832764,481.867188 759.712219,429.215881 758.540955,376.565765 
	C758.103577,356.905396 757.608215,337.246277 757.112793,317.587280 
	C756.912964,309.657898 753.546875,303.561523 745.673401,301.429108 
	C741.187195,300.214081 736.141541,299.728516 731.567139,300.402832 
	C709.675659,303.629761 687.865234,307.403625 666.014709,310.912567 
	C617.712952,318.669250 569.396545,326.335052 521.103882,334.147583 
	C508.194824,336.235931 500.304199,346.403503 500.602112,359.517792 
	C501.805603,412.500702 502.922363,465.485535 504.068939,518.469727 
	C504.469147,536.964172 504.800232,555.460449 505.279419,573.952820 
	C505.668671,588.973999 514.865479,596.197266 529.818848,593.433533 
	C532.436951,592.949646 535.071350,592.554199 538.567322,592.026306 
M323.914948,685.508057 
	C334.672058,686.668701 345.428772,687.833435 356.186401,688.989197 
	C382.995758,691.869568 409.826447,694.566711 436.608643,697.680420 
	C458.038147,700.171875 479.320892,700.874634 500.797638,697.541870 
	C536.799500,691.954895 572.918091,687.120605 608.988037,681.972351 
	C644.234070,676.941711 679.485474,671.947571 714.710815,666.775818 
	C716.257935,666.548706 717.568542,664.710999 718.989319,663.623474 
	C717.434326,662.744629 715.955566,661.307312 714.311279,661.082886 
	C706.892517,660.070557 699.425537,659.414001 691.978333,658.606995 
	C659.378479,655.074585 626.779602,651.533325 594.180176,647.997192 
	C564.724548,644.802063 535.288147,641.411438 505.803894,638.506836 
	C492.908386,637.236511 479.829285,635.680542 466.985870,636.537354 
	C447.936554,637.808228 429.001038,640.953125 410.056213,643.582336 
	C381.053650,647.607422 352.081421,651.851990 323.101807,656.041321 
	C291.816833,660.563904 260.533569,665.099365 229.270111,669.767090 
	C227.669632,670.006042 226.263321,671.545410 224.766617,672.479370 
	C226.241760,673.381775 227.645706,674.917847 229.202591,675.092834 
	C260.465240,678.605957 291.745453,681.962341 323.914948,685.508057 
M226.142044,269.539185 
	C235.578781,270.480103 245.013092,271.446045 254.452667,272.357452 
	C287.932434,275.589874 321.413208,278.811646 354.895081,282.021912 
	C381.415924,284.564728 407.916199,287.366974 434.469574,289.509033 
	C450.375366,290.792145 466.520020,292.766144 482.285461,291.366821 
	C513.927185,288.558258 545.388184,283.693115 576.913452,279.597961 
	C614.048950,274.773987 651.174011,269.869293 688.302734,264.993042 
	C697.378296,263.801117 706.462097,262.659271 715.510376,261.285492 
	C716.685730,261.107025 717.670349,259.671936 718.743347,258.818939 
	C717.662231,257.982208 716.680176,256.648132 715.480042,256.409119 
	C712.721069,255.859665 709.852783,255.876160 707.034424,255.605576 
	C673.718994,252.407028 640.404480,249.197876 607.089783,245.991577 
	C577.421509,243.136230 547.769897,240.090683 518.078491,237.500320 
	C501.513641,236.055161 484.801025,233.828140 468.301056,234.704193 
	C444.580170,235.963638 420.964264,239.506790 397.354523,242.480042 
	C363.008789,246.805283 328.706909,251.479813 294.389252,256.027069 
	C272.445374,258.934723 250.509872,261.905762 228.561707,264.780396 
	C225.808762,265.140961 223.844391,265.708527 226.142044,269.539185 
z"/>
<path fill="#000000" opacity="1.000000" stroke="none" 
	d="
M195.140854,505.909515 
	C192.873688,445.823059 190.652954,386.222809 188.346344,326.625916 
	C187.844833,313.668457 197.258560,305.029785 210.235291,306.360138 
	C246.176590,310.044861 282.139130,313.522217 318.091431,317.100189 
	C353.713074,320.645233 389.338989,324.149323 424.949402,327.804260 
	C437.867493,329.130127 446.485016,338.405884 447.006714,351.314301 
	C448.365662,384.939545 449.661499,418.567505 450.921783,452.196655 
	C452.350494,490.320709 453.361053,528.465088 455.289490,566.563354 
	C455.994568,580.492676 444.661469,588.640686 433.116516,587.411682 
	C377.488922,581.489807 321.782562,576.308716 266.106140,570.844360 
	C249.867477,569.250671 233.634033,567.603027 217.400833,565.954346 
	C206.572281,564.854614 197.636368,555.957275 196.890121,544.837341 
	C196.031509,532.042725 195.710815,519.211975 195.140854,505.909515 
z"/>
<path fill="#010101" opacity="1.000000" stroke="none" 
	d="
M538.132812,592.072144 
	C535.071350,592.554199 532.436951,592.949646 529.818848,593.433533 
	C514.865479,596.197266 505.668671,588.973999 505.279419,573.952820 
	C504.800232,555.460449 504.469147,536.964172 504.068939,518.469727 
	C502.922363,465.485535 501.805603,412.500702 500.602112,359.517792 
	C500.304199,346.403503 508.194824,336.235931 521.103882,334.147583 
	C569.396545,326.335052 617.712952,318.669250 666.014709,310.912567 
	C687.865234,307.403625 709.675659,303.629761 731.567139,300.402832 
	C736.141541,299.728516 741.187195,300.214081 745.673401,301.429108 
	C753.546875,303.561523 756.912964,309.657898 757.112793,317.587280 
	C757.608215,337.246277 758.103577,356.905396 758.540955,376.565765 
	C759.712219,429.215881 760.832764,481.867188 762.023132,534.516907 
	C762.252747,544.670837 758.027466,552.558105 749.116821,556.944214 
	C744.208984,559.359924 738.299988,559.942932 732.759521,560.841370 
	C675.108154,570.190247 617.440430,579.438354 559.775757,588.705139 
	C552.710754,589.840454 545.637024,590.920593 538.132812,592.072144 
M631.488037,475.046295 
	C640.862366,472.713684 648.747192,467.683197 655.884277,461.190460 
	C657.156677,462.164093 658.219177,462.938904 659.240601,463.764557 
	C672.050964,474.119354 684.845276,484.494049 697.666626,494.835083 
	C702.406189,498.657776 705.953735,498.822479 708.477539,495.452393 
	C710.958008,492.140198 710.038147,489.038422 705.500000,485.381897 
	C699.669800,480.684418 693.835022,475.992554 688.016846,471.280334 
	C679.917725,464.720703 671.832031,458.144470 663.808594,451.630554 
	C680.027344,424.070282 671.744019,394.488739 651.880615,378.263306 
	C631.534302,361.643311 602.567444,361.743744 581.451233,378.568817 
	C561.733643,394.279480 555.480591,423.479004 566.944336,446.311310 
	C578.765747,469.855957 605.023926,481.754150 631.488037,475.046295 
z"/>
<path fill="#020202" opacity="1.000000" stroke="none" 
	d="
M323.468567,685.429199 
	C291.745453,681.962341 260.465240,678.605957 229.202591,675.092834 
	C227.645706,674.917847 226.241760,673.381775 224.766617,672.479370 
	C226.263321,671.545410 227.669632,670.006042 229.270111,669.767090 
	C260.533569,665.099365 291.816833,660.563904 323.101807,656.041321 
	C352.081421,651.851990 381.053650,647.607422 410.056213,643.582336 
	C429.001038,640.953125 447.936554,637.808228 466.985870,636.537354 
	C479.829285,635.680542 492.908386,637.236511 505.803894,638.506836 
	C535.288147,641.411438 564.724548,644.802063 594.180176,647.997192 
	C626.779602,651.533325 659.378479,655.074585 691.978333,658.606995 
	C699.425537,659.414001 706.892517,660.070557 714.311279,661.082886 
	C715.955566,661.307312 717.434326,662.744629 718.989319,663.623474 
	C717.568542,664.710999 716.257935,666.548706 714.710815,666.775818 
	C679.485474,671.947571 644.234070,676.941711 608.988037,681.972351 
	C572.918091,687.120605 536.799500,691.954895 500.797638,697.541870 
	C479.320892,700.874634 458.038147,700.171875 436.608643,697.680420 
	C409.826447,694.566711 382.995758,691.869568 356.186401,688.989197 
	C345.428772,687.833435 334.672058,686.668701 323.468567,685.429199 
z"/>
<path fill="#020202" opacity="1.000000" stroke="none" 
	d="
M225.780853,269.303009 
	C223.844391,265.708527 225.808762,265.140961 228.561707,264.780396 
	C250.509872,261.905762 272.445374,258.934723 294.389252,256.027069 
	C328.706909,251.479813 363.008789,246.805283 397.354523,242.480042 
	C420.964264,239.506790 444.580170,235.963638 468.301056,234.704193 
	C484.801025,233.828140 501.513641,236.055161 518.078491,237.500320 
	C547.769897,240.090683 577.421509,243.136230 607.089783,245.991577 
	C640.404480,249.197876 673.718994,252.407028 707.034424,255.605576 
	C709.852783,255.876160 712.721069,255.859665 715.480042,256.409119 
	C716.680176,256.648132 717.662231,257.982208 718.743347,258.818939 
	C717.670349,259.671936 716.685730,261.107025 715.510376,261.285492 
	C706.462097,262.659271 697.378296,263.801117 688.302734,264.993042 
	C651.174011,269.869293 614.048950,274.773987 576.913452,279.597961 
	C545.388184,283.693115 513.927185,288.558258 482.285461,291.366821 
	C466.520020,292.766144 450.375366,290.792145 434.469574,289.509033 
	C407.916199,287.366974 381.415924,284.564728 354.895081,282.021912 
	C321.413208,278.811646 287.932434,275.589874 254.452667,272.357452 
	C245.013092,271.446045 235.578781,270.480103 225.780853,269.303009 
z"/>
<path fill="#FBFBFB" opacity="1.000000" stroke="none" 
	d="
M631.083130,475.118500 
	C605.023926,481.754150 578.765747,469.855957 566.944336,446.311310 
	C555.480591,423.479004 561.733643,394.279480 581.451233,378.568817 
	C602.567444,361.743744 631.534302,361.643311 651.880615,378.263306 
	C671.744019,394.488739 680.027344,424.070282 663.808594,451.630554 
	C671.832031,458.144470 679.917725,464.720703 688.016846,471.280334 
	C693.835022,475.992554 699.669800,480.684418 705.500000,485.381897 
	C710.038147,489.038422 710.958008,492.140198 708.477539,495.452393 
	C705.953735,498.822479 702.406189,498.657776 697.666626,494.835083 
	C684.845276,484.494049 672.050964,474.119354 659.240601,463.764557 
	C658.219177,462.938904 657.156677,462.164093 655.884277,461.190460 
	C648.747192,467.683197 640.862366,472.713684 631.083130,475.118500 
M609.471558,378.776337 
	C585.658020,382.774384 569.973511,405.170135 574.035522,429.375031 
	C577.779053,451.682312 600.613037,468.307007 622.641785,464.763702 
	C646.772949,460.882202 663.523132,438.466370 659.751648,415.101440 
	C655.892578,391.193420 633.993958,375.021149 609.471558,378.776337 
z"/>
<path fill="#020202" opacity="1.000000" stroke="none" 
	d="
M609.895508,378.685913 
	C633.993958,375.021149 655.892578,391.193420 659.751648,415.101440 
	C663.523132,438.466370 646.772949,460.882202 622.641785,464.763702 
	C600.613037,468.307007 577.779053,451.682312 574.035522,429.375031 
	C569.973511,405.170135 585.658020,382.774384 609.895508,378.685913 
z"/>
</svg>